<?xml version="1.0" encoding="UTF-8"?>
<!DOCTYPE svg PUBLIC "-//W3C//DTD SVG 1.1//EN" "http://www.w3.org/Graphics/SVG/1.1/DTD/svg11.dtd">
<!-- Creator: CorelDRAW -->
<svg xmlns="http://www.w3.org/2000/svg" xml:space="preserve" width="32px" height="32px" style="shape-rendering:geometricPrecision; text-rendering:geometricPrecision; image-rendering:optimizeQuality; fill-rule:evenodd; clip-rule:evenodd"
viewBox="0 0 32 32"
 xmlns:xlink="http://www.w3.org/1999/xlink">
 <defs>
  <style type="text/css">
   <![CDATA[
    .fil0 {fill:#333333}
    .fil1 {fill:white}
   ]]>
  </style>
 </defs>
 <g id="Layer_x0020_1">
  <metadata id="CorelCorpID_0Corel-Layer"/>
  <g id="_1252322160">
   <rect id="_1252320872" class="fil0" x="-0.000531261" y="-0.000616057" width="32.0011" height="32.0011" rx="4.00059" ry="4.00059"/>
   <path id="_1252321096" class="fil1" d="M16.0094 0.999262c1.37841,0 2.70486,0.175993 3.98287,0.52916 1.27329,0.353167 2.46626,0.858704 3.57774,1.50716 1.10557,0.654363 2.11664,1.43629 3.0285,2.34224 0.915399,0.90595 1.69733,1.91702 2.35169,3.02377 0.648457,1.11147 1.15399,2.30444 1.51661,3.57774 0.357892,1.27802 0.533885,2.60446 0.533885,3.98287l0 0.0566957c0,1.37841 -0.175993,2.70486 -0.52916,3.97342 -0.353167,1.27329 -0.858704,2.46626 -1.50716,3.57183 -0.654363,1.10675 -1.43629,2.11782 -2.34224,3.0344 -0.910675,0.910675 -1.91702,1.6926 -3.02377,2.33634 -1.11147,0.649638 -2.30444,1.15517 -3.57774,1.51779 -1.27802,0.361435 -2.60446,0.548058 -3.98287,0.548058l-0.0283479 0c-1.37841,0 -2.70958,-0.180718 -3.98287,-0.533885 -1.27802,-0.353167 -2.47099,-0.853979 -3.57655,-1.50716 -1.11147,-0.654363 -2.12255,-1.43157 -3.0344,-2.34224 -0.910675,-0.90595 -1.6926,-1.91702 -2.34578,-3.02377 -0.654363,-1.11147 -1.1599,-2.30444 -1.52252,-3.57774 -0.367341,-1.27802 -0.548058,-2.60446 -0.548058,-3.98287l0 -0.0283479c0,-1.37841 0.180718,-2.70486 0.538609,-3.98287 0.357892,-1.27802 0.868153,-2.47099 1.52133,-3.58128 0.659088,-1.1162 1.44574,-2.12727 2.36586,-3.04385 0.916581,-0.910675 1.93238,-1.6926 3.04385,-2.34697 1.1162,-0.653182 2.30799,-1.15399 3.57655,-1.51661 1.27447,-0.357892 2.59501,-0.533885 3.96397,-0.533885zm-10.3694 23.863c0.262218,0.114573 0.505537,0.257493 0.739406,0.428761 0.23387,0.172449 0.463015,0.362616 0.687435,0.572863 0.223239,0.210247 0.438211,0.433486 0.643732,0.67208 0.204341,0.23387 0.405138,0.481913 0.61066,0.729957 0.386239,0.262218 0.772479,0.496087 1.16817,0.706334 0.395689,0.209065 0.805551,0.409863 1.22132,0.596486 1.25912,0.52916 2.57493,0.862247 3.95807,1.00635 0.229145,-0.272848 0.406319,-0.591761 0.520892,-0.963827 0.118116,-0.37679 0.227964,-0.777204 0.328363,-1.20242 0.105123,-0.428761 0.229145,-0.868153 0.37679,-1.31581 0.15237,-0.448841 0.367341,-0.877602 0.657906,-1.2981 0.381515,-0.543334 0.649638,-1.04887 0.797283,-1.53078 0.147645,-0.481913 0.22442,-0.920124 0.22442,-1.32054 0,-0.472464 -0.0767754,-0.877602 -0.22442,-1.2166 -0.147645,-0.334268 -0.31537,-0.582312 -0.500812,-0.739406 0.00472464,-0.0283479 0.00944928,-0.0720508 0.00944928,-0.124022 0,-0.243319 -0.157094,-0.405138 -0.481913,-0.491363 -0.320094,-0.0862247 -0.715783,-0.124022 -1.19297,-0.124022 -0.290565,0 -0.59058,0.00944928 -0.910675,0.0283479 -0.314189,0.0141739 -0.624834,0.0377971 -0.934298,0.0626015 -0.305921,0.0236232 -0.601211,0.0425218 -0.877602,0.0614203 -0.282297,0.0188986 -0.535066,0.0283479 -0.758305,0.0283479 -0.343718,0 -0.577587,-0.0330725 -0.696885,-0.0992175 -0.428761,-0.362616 -0.877602,-0.75358 -1.35007,-1.1788 -0.466558,-0.424037 -0.901225,-0.853979 -1.29691,-1.29219 -0.395689,-0.439392 -0.725233,-0.863428 -0.978001,-1.27802 -0.257493,-0.415768 -0.386239,-0.797283 -0.386239,-1.13982 0,-0.167725 0.0330725,-0.320094 0.100399,-0.448841 0.0803189,-0.186623 0.243319,-0.324819 0.481913,-0.409863 0.238594,-0.0909494 0.491363,-0.133471 0.758305,-0.133471 0.271667,0 0.524435,0.0377971 0.76303,0.119297 0.238594,0.0755943 0.405138,0.194891 0.510261,0.351986l0 0.0720508c0,0.548058 0.210247,1.02525 0.629559,1.43039 0.419312,0.406319 0.978001,0.744131 1.6737,1.0158 0.029529,-0.0283479 0.0437029,-0.0755943 0.0437029,-0.138196 0,-0.124022 -0.0389783,-0.29529 -0.109848,-0.519711 -0.0767754,-0.22442 -0.158276,-0.457109 -0.248044,-0.695704 -0.0862247,-0.243319 -0.172449,-0.472464 -0.248044,-0.687435 -0.0815001,-0.214971 -0.124022,-0.372066 -0.133471,-0.477189l0 -0.0944928c0,-0.177174 0.0330725,-0.386239 0.095674,-0.629559 0.066145,-0.243319 0.15237,-0.491363 0.252768,-0.75358 0.103942,-0.263399 0.223239,-0.520892 0.361435,-0.778385 0.144102,-0.252768 0.282297,-0.481913 0.429942,-0.68153 0.14292,-0.200797 0.290565,-0.362616 0.438211,-0.491363 0.148826,-0.124022 0.287022,-0.186623 0.420493,-0.186623l0.0803189 0c0.252768,0 0.448841,-0.0377971 0.582312,-0.103942 0.133471,-0.0720508 0.238594,-0.158276 0.31537,-0.268123 0.0755943,-0.103942 0.133471,-0.223239 0.180718,-0.347261 0.0472464,-0.128746 0.105123,-0.243319 0.180718,-0.348442 0.0767754,-0.109848 0.177174,-0.196073 0.301196,-0.266942 0.124022,-0.0720508 0.304739,-0.105123 0.538609,-0.105123 0.186623,0 0.414587,0.0283479 0.682711,0.0862247 0.271667,0.0519711 0.60003,0.147645 0.992175,0.276392l0.0283479 0c0.066145,0 0.15237,-0.0767754 0.252768,-0.238594 0.100399,-0.157094 0.199616,-0.362616 0.300015,-0.620109 0.100399,-0.257493 0.181899,-0.548058 0.243319,-0.872878 0.0673261,-0.329544 0.100399,-0.662631 0.100399,-1.00635 0,-0.419312 -0.0673261,-0.825631 -0.205522,-1.2166 -0.133471,-0.390964 -0.372066,-0.709877 -0.719327,-0.962646 -0.214971,-0.158276 -0.411044,-0.272848 -0.601211,-0.334268 -0.186623,-0.0673261 -0.372066,-0.100399 -0.558689,-0.100399 -0.353167,0 -0.676805,0.100399 -0.96737,0.29529 -0.296471,0.196073 -0.563414,0.411044 -0.806733,0.649638 -0.243319,0.238594 -0.45829,0.452384 -0.648457,0.648457 -0.191348,0.194891 -0.362616,0.300015 -0.510261,0.304739l-0.138196 0c-0.15237,0 -0.257493,-0.0188986 -0.329544,-0.0614203 -0.0708696,-0.0389783 -0.124022,-0.105123 -0.166544,-0.186623 -0.0437029,-0.0850436 -0.0815001,-0.190167 -0.114573,-0.314189 -0.0330725,-0.128746 -0.0815001,-0.271667 -0.14292,-0.439392 -0.172449,-0.37679 -0.353167,-0.676805 -0.553964,-0.901225 -0.199616,-0.229145 -0.414587,-0.400413 -0.634283,-0.510261 -0.0472464,0.0188986 -0.0909494,0.0283479 -0.119297,0.0377971 -0.0330725,0.00944928 -0.0708696,0.0236232 -0.105123,0.0437029 -0.819725,0.351986 -1.5922,0.772479 -2.31271,1.25912 -0.725233,0.480732 -1.39731,1.04415 -2.02215,1.6737 -0.620109,0.624834 -1.1788,1.30164 -1.67016,2.02687 -0.486638,0.729957 -0.90595,1.50244 -1.24967,2.32334 -0.262218,0.620109 -0.471283,1.27329 -0.643732,1.95482l0 0.0531522c0,0.252768 0.0236232,0.496087 0.0673261,0.729957 0.0377971,0.23387 0.109848,0.44766 0.21379,0.643732 0.109848,0.229145 0.296471,0.491363 0.553964,0.781928 0.252768,0.285841 0.538609,0.582312 0.858704,0.887052 0.314189,0.301196 0.648457,0.605935 0.992175,0.90595 0.342537,0.305921 0.667356,0.587037 0.962646,0.84453 0.301196,0.262218 0.54924,0.496087 0.75358,0.701609 0.205522,0.204341 0.334268,0.357892 0.37679,0.457109 -0.490182,0.172449 -0.953197,0.334268 -1.38314,0.491363 -0.185442,0.0767754 -0.367341,0.148826 -0.548058,0.214971 -0.186623,0.0720508 -0.353167,0.14292 -0.510261,0.219696 -0.161819,0.0708696 -0.300015,0.147645 -0.419312,0.214971 -0.124022,0.0708696 -0.210247,0.133471 -0.268123,0.190167 -0.185442,0.196073 -0.281116,0.463015 -0.281116,0.811457 0,0.276392 0.0531522,0.585856 0.147645,0.920124 0.100399,0.334268 0.210247,0.667356 0.338993,0.992175 0.124022,0.323638 0.248044,0.629559 0.367341,0.915399 0.124022,0.287022 0.200797,0.524435 0.238594,0.720508 0.066145,0.0815001 0.128746,0.166544 0.194891,0.243319 0.0673261,0.0815001 0.134652,0.161819 0.210247,0.243319zm19.1844 -5.79477c0,0.147645 0.0377971,0.347261 0.103942,0.604754 0.0720508,0.257493 0.163,0.53979 0.277573,0.853979 0.108667,0.310645 0.243319,0.634283 0.400413,0.963827 0.161819,0.329544 0.328363,0.639008 0.505537,0.929573 0.175993,0.287022 0.367341,0.544515 0.566957,0.77366 0.200797,0.227964 0.39687,0.390964 0.591761,0.480732 0.514986,-0.744131 0.949653,-1.54496 1.31227,-2.40366 0.357892,-0.84453 0.620109,-1.70796 0.796102,-2.59028 0.180718,-0.882327 0.266942,-1.78355 0.266942,-2.71785 0,-0.921305 -0.0909494,-1.82253 -0.276392,-2.70486 -0.191348,-0.877602 -0.45829,-1.74103 -0.811457,-2.59028 -0.690979,-1.64063 -1.66426,-3.08047 -2.92337,-4.31596 -0.196073,-0.196073 -0.395689,-0.386239 -0.601211,-0.568138 -0.204341,-0.180718 -0.414587,-0.357892 -0.624834,-0.524435 -0.309464,0.0283479 -0.620109,0.128746 -0.929573,0.310645 -0.31537,0.175993 -0.61066,0.466558 -0.887052,0.877602 -0.205522,0.300015 -0.353167,0.562232 -0.444116,0.796102 -0.0862247,0.23387 -0.128746,0.438211 -0.128746,0.615385 0,0.252768 0.0720508,0.452384 0.219696,0.601211 0.15237,0.147645 0.338993,0.266942 0.562232,0.347261 0.219696,0.0862247 0.463015,0.148826 0.725233,0.191348 0.262218,0.0425218 0.500812,0.0767754 0.725233,0.105123 0.22442,0.0283479 0.409863,0.0566957 0.557508,0.0909494 0.153551,0.0330725 0.22442,0.0850436 0.22442,0.157094 0,0.0188986 -0.00472464,0.0330725 -0.0141739,0.0425218 -0.0425218,0.114573 -0.210247,0.266942 -0.486638,0.46774 -0.281116,0.200797 -0.615385,0.442935 -1.00635,0.729957 -0.390964,0.281116 -0.810276,0.61066 -1.25912,0.978001 -0.442935,0.36616 -0.858704,0.767754 -1.23549,1.20596 -0.37679,0.439392 -0.690979,0.911856 -0.943747,1.41267 -0.252768,0.505537 -0.37679,1.0347 -0.37679,1.5922 0,0.0578769 0,0.114573 0,0.177174 0,0.0566957 0.00472464,0.124022 0.0141739,0.185442 0.0283479,0.252768 0.166544,0.500812 0.409863,0.748856 0.248044,0.248044 0.552783,0.477189 0.910675,0.69216 0.357892,0.21379 0.748856,0.409863 1.16935,0.595305 0.414587,0.181899 0.810276,0.338993 1.17762,0.472464 0.367341,0.133471 0.687435,0.238594 0.949653,0.310645 0.266942,0.066145 0.428761,0.105123 0.481913,0.105123z"/>
  </g>
 </g>
</svg>
