<?xml version="1.0" encoding="UTF-8"?>
<!DOCTYPE svg PUBLIC "-//W3C//DTD SVG 1.1//EN" "http://www.w3.org/Graphics/SVG/1.1/DTD/svg11.dtd">
<!-- Creator: CorelDRAW -->
<svg xmlns="http://www.w3.org/2000/svg" xml:space="preserve" width="32px" height="32px" style="shape-rendering:geometricPrecision; text-rendering:geometricPrecision; image-rendering:optimizeQuality; fill-rule:evenodd; clip-rule:evenodd"
viewBox="0 0 32 32"
 xmlns:xlink="http://www.w3.org/1999/xlink">
 <defs>
  <style type="text/css">
   <![CDATA[
    .fil0 {fill:#CD402F}
    .fil1 {fill:white}
   ]]>
  </style>
 </defs>
 <g id="Layer_x0020_1">
  <metadata id="CorelCorpID_0Corel-Layer"/>
  <g id="_502958440">
   <rect id="_502963144" class="fil0" x="-0.000562803" y="-0.000650427" width="32.0012" height="32.0012" rx="4.00059" ry="4.00059"/>
   <path id="_502961408" class="fil1" d="M32.0012 7.48147l0 2.30799 -5.48295 0 0 5.52547 -2.33634 0 0 -5.52547 -5.48295 0 0 -2.30799 5.48295 0 0 -5.48295 2.33634 0 0 5.48295 5.48295 0zm-14.1479 24.5197l-2.74738 0c0.0354348,-0.243319 0.0531522,-0.492544 0.0531522,-0.751218 0,-0.604754 -0.103942,-1.15281 -0.311826,-1.64772 -0.206703,-0.493725 -0.518529,-0.980363 -0.931936,-1.45873 -0.414587,-0.477189 -0.955559,-0.969733 -1.62528,-1.47999 -0.669718,-0.510261 -1.45047,-1.08312 -2.34106,-1.72095 -0.192529,-0.0330725 -0.360254,-0.0472464 -0.503174,-0.0472464 -0.14292,0 -0.342537,0 -0.597667,0 -0.0944928,0 -0.317732,0.00708696 -0.668537,0.022442 -0.351986,0.0165362 -0.764211,0.0496087 -1.24258,0.0968552 -0.47837,0.0472464 -0.988631,0.127565 -1.53078,0.237413 -0.53979,0.11221 -1.06659,0.248044 -1.57567,0.4075 -0.255131,0.095674 -0.614203,0.245681 -1.07486,0.453566 -0.463015,0.206703 -0.917762,0.501993 -1.36306,0.884689 -0.445298,0.382696 -0.838624,0.859885 -1.17171,1.43393 -0.0555145,0.095674 -0.106304,0.196073 -0.153551,0.300015 -0.0448841,-0.237413 -0.0685073,-0.481913 -0.0685073,-0.73232l0 -2.6895c0.497269,-0.245681 1.01816,-0.455928 1.56031,-0.63074 0.843349,-0.270486 1.68197,-0.485457 2.50997,-0.644914 0.827994,-0.159457 1.60874,-0.270486 2.34106,-0.334268 0.733501,-0.0637827 1.37015,-0.111029 1.9123,-0.144102 -0.349624,-0.446479 -0.676805,-0.915399 -0.979182,-1.41031 -0.302377,-0.492544 -0.453566,-1.10793 -0.453566,-1.84025 0,-0.413406 0.0472464,-0.755943 0.14292,-1.02879 0.095674,-0.269305 0.206703,-0.548058 0.33545,-0.83508 -0.256312,0.0318913 -0.511442,0.0555145 -0.765392,0.0720508 -0.255131,0.0153551 -0.510261,0.0236232 -0.765392,0.0236232 -1.27447,0 -2.40602,-0.214971 -3.39347,-0.646095 -0.968552,-0.420493 -1.78237,-0.972095 -2.445,-1.65362l0 -10.6458c0.291747,-0.33545 0.611841,-0.656725 0.963827,-0.963827 1.37015,-1.11502 2.81116,-1.8308 4.32423,-2.15089 1.51543,-0.317732 2.92337,-0.47837 4.2321,-0.47837l9.84497 0 -3.05921 1.72095 -2.96471 0c0.287022,0.223239 0.622472,0.518529 1.00517,0.88587 0.383877,0.364979 0.748856,0.812638 1.09966,1.33825 0.349624,0.525616 0.652001,1.13864 0.907131,1.83907 0.255131,0.701609 0.382696,1.49771 0.382696,2.38949 0,0.892957 -0.111029,1.6737 -0.334268,2.34224 -0.223239,0.669718 -0.525616,1.26739 -0.908312,1.793 -0.382696,0.525616 -0.812638,1.00281 -1.29101,1.43275 -0.477189,0.429942 -0.970914,0.837443 -1.48118,1.22014 -0.317732,0.317732 -0.62129,0.653182 -0.907131,1.00399 -0.288203,0.349624 -0.431124,0.794921 -0.431124,1.33707 0,0.543334 0.14292,0.963827 0.431124,1.26739 0.285841,0.302377 0.557508,0.565776 0.812638,0.789015l1.71977 1.33825c0.510261,0.445298 1.01107,0.892957 1.50598,1.33825 0.493725,0.445298 0.923668,0.922486 1.28983,1.43275 0.36616,0.510261 0.66145,1.08431 0.883508,1.72095 0.223239,0.637827 0.33545,1.37133 0.33545,2.19932 0,0.879965 -0.167725,1.75166 -0.506718,2.61391zm-9.76938 -14.8023c0.604754,0 1.20242,-0.127565 1.79182,-0.382696 0.59058,-0.255131 1.07604,-0.574044 1.45873,-0.955559 0.540972,-0.542153 0.876421,-1.14691 1.00281,-1.81662 0.127565,-0.668537 0.192529,-1.22723 0.192529,-1.67252 0,-0.859885 -0.127565,-1.80127 -0.382696,-2.81943 -0.255131,-1.01934 -0.637827,-1.97608 -1.14809,-2.86786 -0.510261,-0.892957 -1.13864,-1.63354 -1.88749,-2.22294 -0.748856,-0.589399 -1.61701,-0.884689 -2.60446,-0.884689 -0.637827,0 -1.2603,0.14292 -1.86505,0.431124 -0.605935,0.28466 -1.09848,0.667356 -1.48118,1.14573 -0.414587,0.510261 -0.693341,1.06777 -0.836262,1.67252 -0.144102,0.605935 -0.214971,1.22841 -0.214971,1.86623 0,0.794921 0.118116,1.68788 0.357892,2.67651 0.238594,0.98745 0.605935,1.91112 1.09848,2.771 0.494906,0.859885 1.11502,1.5863 1.86505,2.1757 0.750037,0.588218 1.63354,0.883508 2.65289,0.883508z"/>
  </g>
 </g>
</svg>
