<?xml version="1.0" encoding="UTF-8"?>
<!DOCTYPE svg PUBLIC "-//W3C//DTD SVG 1.1//EN" "http://www.w3.org/Graphics/SVG/1.1/DTD/svg11.dtd">
<!-- Creator: CorelDRAW -->
<svg xmlns="http://www.w3.org/2000/svg" xml:space="preserve" width="32px" height="32px" style="shape-rendering:geometricPrecision; text-rendering:geometricPrecision; image-rendering:optimizeQuality; fill-rule:evenodd; clip-rule:evenodd"
viewBox="0 0 32 32"
 xmlns:xlink="http://www.w3.org/1999/xlink">
 <defs>
  <style type="text/css">
   <![CDATA[
    .fil0 {fill:#3B5998}
    .fil1 {fill:white;fill-rule:nonzero}
   ]]>
  </style>
 </defs>
 <g id="Layer_x0020_1">
  <metadata id="CorelCorpID_0Corel-Layer"/>
  <g id="_504536896">
   <rect id="_504537120" class="fil0" x="-0.000548732" y="-0.000633528" width="32.0012" height="32.0012" rx="4.00059" ry="4.00059"/>
   <path id="_504537568" class="fil1" d="M29.001 2.55485c-0.510261,-0.105123 -0.998081,-0.205522 -1.45519,-0.283479 -0.461834,-0.0874059 -0.931936,-0.15237 -1.40086,-0.198435 -0.468921,-0.0472464 -0.970914,-0.073232 -1.50716,-0.073232 -1.55441,0 -2.81589,0.2445 -3.77381,0.719327 -0.966189,0.483095 -1.66544,1.17762 -2.11546,2.10247 -0.444116,0.920124 -0.660269,2.03632 -0.654363,3.36513l0 2.89502 -2.93518 0 0 4.67976 2.93518 0 0 14.2377 5.71091 0 0 -14.2377 4.16359 0 0.39687 -4.67976 -4.56046 0 0 -2.25956c-0.0129928,-0.424037 0.0200797,-0.79374 0.0992175,-1.09848 0.073232,-0.310645 0.251587,-0.548058 0.527979,-0.713421 0.278754,-0.165362 0.714602,-0.251587 1.31699,-0.251587 0.230326,0 0.487819,0.0129928 0.779566,0.0330725 0.290565,0.0259855 0.594124,0.0602392 0.898863,0.0992175 0.303558,0.0460653 0.588218,0.0921305 0.858704,0.145283l0.714602 -4.48132z"/>
  </g>
 </g>
</svg>
