<?xml version="1.0" encoding="UTF-8"?>
<!DOCTYPE svg PUBLIC "-//W3C//DTD SVG 1.1//EN" "http://www.w3.org/Graphics/SVG/1.1/DTD/svg11.dtd">
<!-- Creator: CorelDRAW -->
<svg xmlns="http://www.w3.org/2000/svg" xml:space="preserve" width="32px" height="32px" style="shape-rendering:geometricPrecision; text-rendering:geometricPrecision; image-rendering:optimizeQuality; fill-rule:evenodd; clip-rule:evenodd"
viewBox="0 0 32 32"
 xmlns:xlink="http://www.w3.org/1999/xlink">
 <defs>
  <style type="text/css">
   <![CDATA[
    .fil0 {fill:#00ACEE}
    .fil1 {fill:white;fill-rule:nonzero}
   ]]>
  </style>
 </defs>
 <g id="Layer_x0020_1">
  <metadata id="CorelCorpID_0Corel-Layer"/>
  <g id="_1249871592">
   <rect id="_1249874896" class="fil0" x="-0.000553131" y="-0.000637927" width="32.0012" height="32.0012" rx="4.00059" ry="4.00059"/>
   <path id="_1249874616" class="fil1" d="M25.9997 26.4592c0,0.963827 -0.34608,1.79064 -1.03233,2.47807 -0.687435,0.687435 -1.51661,1.02997 -2.47807,1.03233l-5.95777 0.0212609c-2.88912,0.00944928 -5.37074,-1.02643 -7.43422,-3.07692 -2.06349,-2.05049 -3.097,-4.52266 -3.097,-7.41414l0 -14.0003c0,-0.962646 0.351986,-1.78946 1.0536,-2.47689 0.700428,-0.687435 1.53433,-1.03233 2.49815,-1.03233 0.962646,0 1.78946,0.343718 2.47807,1.03233 0.687435,0.687435 1.03233,1.51543 1.03233,2.47689l0 3.51159 9.42684 -0.0212609c0.963827,-0.00236232 1.79064,0.344899 2.47807,1.03233 0.686254,0.687435 1.03233,1.51543 1.03233,2.47807 0,0.963827 -0.34608,1.79064 -1.03233,2.47807 -0.687435,0.687435 -1.51661,1.03115 -2.47807,1.03233l-9.46936 0.0212609 0 3.46789c0,0.93666 0.344899,1.75048 1.03352,2.43792 0.687435,0.687435 1.50007,1.03588 2.43555,1.03233l6.0003 -0.0200797c0.963827,-0.00354348 1.78946,0.343718 2.47807,1.03233 0.687435,0.687435 1.03233,1.51307 1.03233,2.47689z"/>
  </g>
 </g>
</svg>
